# xmcd CD database file
# Copyright (C) 1996 Ti Kan
#
# Track frame offsets:
# 	150
# 	13230
# 	30687
# 	43680
# 	60807
# 	80417
# 	90907
# 	107992
# 	125117
# 	137150
#
# Disc length: 2075 seconds
#
# Revision: 1
# Processed by: cddbd v1.4PL0 Copyright (c) Steve Scherf et al.
# Submitted via: DiscPlay 3.4.1
#
DISCID=7e08190a
DTITLE=Nitty Gritty Dirt Band - Not Fade Away
DYEAR=1992
DGENRE=Country
TTITLE0=Not Fade Away
TTITLE1=Little Angel
TTITLE2=Mama Tried
TTITLE3=One Good Love
TTITLE4=Losin' You
TTITLE5=I Fought the Law
TTITLE6=Mother of the Bride
TTITLE7=Don't Underestimate Love
TTITLE8=What'll You Do About Me
TTITLE9=The Dream
EXTD=
EXTT0=
EXTT1=
EXTT2=
EXTT3=
EXTT4=
EXTT5=
EXTT6=
EXTT7=(with Suzy Bogguss)
EXTT8=
EXTT9=
PLAYORDER=
